{
  "accessors": [
    {
      "bufferView": 2,
      "componentType": 5126,
      "count": 2923,
      "max": [
        24.789264678955078,
        25.879642486572266,
        66.32267761230469
      ],
      "min": [
        -24.78853416442871,
        -21.272340774536133,
        0.007851704955101013
      ],
      "type": "VEC3"
    },
    {
      "bufferView": 2,
      "byteOffset": 35076,
      "componentType": 5126,
      "count": 2923,
      "max": [
        1.0,
        1.0,
        1.0
      ],
      "min": [
        -1.0,
        -1.0,
        -1.0
      ],
      "type": "VEC3"
    },
    {
      "bufferView": 3,
      "componentType": 5126,
      "count": 2923,
      "max": [
        1.0,
        1.0,
        1.0,
        1.0
      ],
      "min": [
        -1.0,
        -1.0,
        -1.0,
        1.0
      ],
      "type": "VEC4"
    },
    {
      "bufferView": 1,
      "componentType": 5126,
      "count": 2923,
      "max": [
        1.635422706604004,
        0.9915740489959717
      ],
      "min": [
        0.007019813638180494,
        0.006208084523677826
      ],
      "type": "VEC2"
    },
    {
      "bufferView": 1,
      "byteOffset": 23384,
      "componentType": 5126,
      "count": 2923,
      "max": [
        0.9902443289756775,
        0.9870926141738892
      ],
      "min": [
        0.006585226394236088,
        0.008170452900230885
      ],
      "type": "VEC2"
    },
    {
      "bufferView": 0,
      "componentType": 5125,
      "count": 11724,
      "type": "SCALAR"
    }
  ],
  "asset": {
    "extras": {
      "author": "Guantanamera (https://sketchfab.com/guantanamera)",
      "license": "CC-BY-4.0 (http://creativecommons.org/licenses/by/4.0/)",
      "source": "https://sketchfab.com/3d-models/old-computer-chair-a311529b1ec349c48f789bf4e1f99e89",
      "title": "Old Computer Chair"
    },
    "generator": "Sketchfab-11.64.0",
    "version": "2.0"
  },
  "bufferViews": [
    {
      "buffer": 0,
      "byteLength": 46896,
      "name": "floatBufferViews",
      "target": 34963
    },
    {
      "buffer": 0,
      "byteLength": 46768,
      "byteOffset": 46896,
      "byteStride": 8,
      "name": "floatBufferViews",
      "target": 34962
    },
    {
      "buffer": 0,
      "byteLength": 70152,
      "byteOffset": 93664,
      "byteStride": 12,
      "name": "floatBufferViews",
      "target": 34962
    },
    {
      "buffer": 0,
      "byteLength": 46768,
      "byteOffset": 163816,
      "byteStride": 16,
      "name": "floatBufferViews",
      "target": 34962
    }
  ],
  "buffers": [
    {
      "byteLength": 210584,
      "uri": "scene.bin"
    }
  ],
  "images": [
    {
      "uri": "textures/computerchair_material_baseColor.png"
    },
    {
      "uri": "textures/computerchair_material_metallicRoughness.png"
    },
    {
      "uri": "textures/computerchair_material_normal.png"
    }
  ],
  "materials": [
    {
      "doubleSided": true,
      "name": "computerchair_material",
      "normalTexture": {
        "index": 2
      },
      "pbrMetallicRoughness": {
        "baseColorTexture": {
          "index": 0
        },
        "metallicRoughnessTexture": {
          "index": 1
        }
      }
    }
  ],
  "meshes": [
    {
      "name": "computerchair_01_computerchair_material_0",
      "primitives": [
        {
          "attributes": {
            "NORMAL": 1,
            "POSITION": 0,
            "TANGENT": 2,
            "TEXCOORD_0": 3,
            "TEXCOORD_1": 4
          },
          "indices": 5,
          "material": 0,
          "mode": 4
        }
      ]
    }
  ],
  "nodes": [
    {
      "children": [
        1
      ],
      "matrix": [
        1.0,
        0.0,
        0.0,
        0.0,
        0.0,
        2.220446049250313e-16,
        -1.0,
        0.0,
        0.0,
        1.0,
        2.220446049250313e-16,
        0.0,
        0.0,
        0.0,
        0.0,
        1.0
      ],
      "name": "Sketchfab_model"
    },
    {
      "children": [
        2
      ],
      "matrix": [
        0.009999999776482582,
        0.0,
        0.0,
        0.0,
        0.0,
        0.0,
        0.009999999776482582,
        0.0,
        0.0,
        -0.009999999776482582,
        0.0,
        0.0,
        0.0,
        0.0,
        0.0,
        1.0
      ],
      "name": "8fbfca85cb60475eac8a24c41b1b216a.fbx"
    },
    {
      "children": [
        3
      ],
      "name": "RootNode"
    },
    {
      "children": [
        4
      ],
      "matrix": [
        1.0,
        0.0,
        0.0,
        0.0,
        0.0,
        2.220446049250313e-16,
        -1.0,
        0.0,
        0.0,
        1.0,
        2.220446049250313e-16,
        0.0,
        0.0,
        0.0,
        0.0,
        1.0
      ],
      "name": "computerchair_01"
    },
    {
      "mesh": 0,
      "name": "computerchair_01_computerchair_material_0"
    }
  ],
  "samplers": [
    {
      "magFilter": 9729,
      "minFilter": 9987,
      "wrapS": 10497,
      "wrapT": 10497
    }
  ],
  "scene": 0,
  "scenes": [
    {
      "name": "Sketchfab_Scene",
      "nodes": [
        0
      ]
    }
  ],
  "textures": [
    {
      "sampler": 0,
      "source": 0
    },
    {
      "sampler": 0,
      "source": 1
    },
    {
      "sampler": 0,
      "source": 2
    }
  ]
}
